REM DIRINDEX 1\2\6,1\2\7,1\2\8,1\3\9,1\3\10,1\3\11,1\4\12,1\4\13,1\4\14,1\5\15,1\5\16,1\5\17,1\5\18
REM DIRNAME folder01,folder02,folder03,folder04,folder05,folder06,folder07,folder08,folder09,folder10,folder11,folder12,folder13,folder14,folder15,folder16,folder17,folder18
TITLE ""
FILE "" MP3
  TRACK 01 AUDIO
    TITLE "16:cjc019_5328"
    INDEX 01 00:00:00
  TRACK 02 AUDIO
    TITLE "0:"
    INDEX 01 00:00:74
  TRACK 03 AUDIO
    TITLE "18:cjc019_5329"
    INDEX 01 00:01:60
  TRACK 04 AUDIO
    TITLE "0:"
    INDEX 01 00:02:65
  TRACK 05 AUDIO
    TITLE "17:cjc019_5330"
    INDEX 01 00:03:41
  TRACK 06 AUDIO
    TITLE "0:"
    INDEX 01 00:04:52
  TRACK 07 AUDIO
    TITLE "16:cjc019_5331"
    INDEX 01 00:06:41
  TRACK 08 AUDIO
    TITLE "0:"
    INDEX 01 00:07:54
  TRACK 09 AUDIO
    TITLE "18:cjc019_5332"
    INDEX 01 00:08:32
  TRACK 10 AUDIO
    TITLE "0:"
    INDEX 01 00:10:47
  TRACK 11 AUDIO
    TITLE "17:cjc019_5333"
    INDEX 01 00:11:31
  TRACK 12 AUDIO
    TITLE "0:"
    INDEX 01 00:12:40
  TRACK 13 AUDIO
    TITLE "16:cjc019_5334"
    INDEX 01 00:14:31
  TRACK 14 AUDIO
    TITLE "0:"
    INDEX 01 00:15:40
  TRACK 15 AUDIO
    TITLE "18:cjc019_5335"
    INDEX 01 00:16:24
  TRACK 16 AUDIO
    TITLE "0:"
    INDEX 01 00:17:35
  TRACK 17 AUDIO
    TITLE "17:cjc019_5336"
    INDEX 01 00:18:11
  TRACK 18 AUDIO
    TITLE "0:"
    INDEX 01 00:19:26
  TRACK 19 AUDIO
    TITLE "16:cjc019_5337"
    INDEX 01 00:21:06
  TRACK 20 AUDIO
    TITLE "0:"
    INDEX 01 00:22:23
  TRACK 21 AUDIO
    TITLE "18:cjc019_5338"
    INDEX 01 00:23:10
  TRACK 22 AUDIO
    TITLE "0:"
    INDEX 01 00:27:08
  TRACK 23 AUDIO
    TITLE "17:cjc019_5339"
    INDEX 01 00:27:61
  TRACK 24 AUDIO
    TITLE "0:"
    INDEX 01 00:29:01
  TRACK 25 AUDIO
    TITLE "16:cjc019_5340"
    INDEX 01 00:30:63
  TRACK 26 AUDIO
    TITLE "0:"
    INDEX 01 00:32:11
  TRACK 27 AUDIO
    TITLE "18:cjc019_5341"
    INDEX 01 00:32:66
  TRACK 28 AUDIO
    TITLE "0:"
    INDEX 01 00:33:62
  TRACK 29 AUDIO
    TITLE "17:cjc019_5342"
    INDEX 01 00:34:47
  TRACK 30 AUDIO
    TITLE "0:"
    INDEX 01 00:35:72
  TRACK 31 AUDIO
    TITLE "16:cjc019_5343"
    INDEX 01 00:37:61
  TRACK 32 AUDIO
    TITLE "0:"
    INDEX 01 00:39:31
  TRACK 33 AUDIO
    TITLE "18:cjc019_5344"
    INDEX 01 00:40:15
  TRACK 34 AUDIO
    TITLE "0:"
    INDEX 01 00:44:69
  TRACK 35 AUDIO
    TITLE "17:cjc019_5345"
    INDEX 01 00:45:47
  TRACK 36 AUDIO
    TITLE "0:"
    INDEX 01 00:47:17
  TRACK 37 AUDIO
    TITLE "16:cjc019_5346"
    INDEX 01 00:49:00
  TRACK 38 AUDIO
    TITLE "0:"
    INDEX 01 00:50:17
  TRACK 39 AUDIO
    TITLE "18:cjc019_5347"
    INDEX 01 00:51:07
  TRACK 40 AUDIO
    TITLE "0:"
    INDEX 01 00:54:68
  TRACK 41 AUDIO
    TITLE "17:cjc019_5348"
    INDEX 01 00:55:48
  TRACK 42 AUDIO
    TITLE "0:"
    INDEX 01 00:56:65
  TRACK 43 AUDIO
    TITLE "16:cjc019_5349"
    INDEX 01 00:58:50
  TRACK 44 AUDIO
    TITLE "0:"
    INDEX 01 00:59:59
  TRACK 45 AUDIO
    TITLE "18:cjc019_5350"
    INDEX 01 01:00:41
  TRACK 46 AUDIO
    TITLE "0:"
    INDEX 01 01:01:58
  TRACK 47 AUDIO
    TITLE "17:cjc019_5351"
    INDEX 01 01:02:36
  TRACK 48 AUDIO
    TITLE "0:"
    INDEX 01 01:03:49
  TRACK 49 AUDIO
    TITLE "16:cjc019_5352"
    INDEX 01 01:05:36
  TRACK 50 AUDIO
    TITLE "0:"
    INDEX 01 01:06:55
  TRACK 51 AUDIO
    TITLE "18:cjc019_5353"
    INDEX 01 01:07:25
  TRACK 52 AUDIO
    TITLE "0:"
    INDEX 01 01:08:62
  TRACK 53 AUDIO
    TITLE "17:cjc019_5354"
    INDEX 01 01:09:42
  TRACK 54 AUDIO
    TITLE "0:"
    INDEX 01 01:10:65
  TRACK 55 AUDIO
    TITLE "16:cjc019_5355"
    INDEX 01 01:12:48
  TRACK 56 AUDIO
    TITLE "0:"
    INDEX 01 01:13:71
  TRACK 57 AUDIO
    TITLE "18:cjc019_5356"
    INDEX 01 01:14:45
  TRACK 58 AUDIO
    TITLE "0:"
    INDEX 01 01:19:70
  TRACK 59 AUDIO
    TITLE "17:cjc019_5357"
    INDEX 01 01:20:46
  TRACK 60 AUDIO
    TITLE "0:"
    INDEX 01 01:21:65
  TRACK 61 AUDIO
    TITLE "16:cjc019_5358"
    INDEX 01 01:23:42
  TRACK 62 AUDIO
    TITLE "0:"
    INDEX 01 01:24:71
  TRACK 63 AUDIO
    TITLE "18:cjc019_5359"
    INDEX 01 01:25:53
  TRACK 64 AUDIO
    TITLE "0:"
    INDEX 01 01:28:14
  TRACK 65 AUDIO
    TITLE "17:cjc019_5360"
    INDEX 01 01:28:69
  TRACK 66 AUDIO
    TITLE "0:"
    INDEX 01 01:30:26
  TRACK 67 AUDIO
    TITLE "16:cjc019_5361"
    INDEX 01 01:32:10
  TRACK 68 AUDIO
    TITLE "0:"
    INDEX 01 01:33:23
  TRACK 69 AUDIO
    TITLE "18:cjc019_5362"
    INDEX 01 01:34:10
  TRACK 70 AUDIO
    TITLE "0:"
    INDEX 01 01:36:11
  TRACK 71 AUDIO
    TITLE "17:cjc019_5363"
    INDEX 01 01:36:62
  TRACK 72 AUDIO
    TITLE "0:"
    INDEX 01 01:38:08
  TRACK 73 AUDIO
    TITLE "16:cjc019_5364"
    INDEX 01 01:39:64
  TRACK 74 AUDIO
    TITLE "0:"
    INDEX 01 01:41:32
  TRACK 75 AUDIO
    TITLE "18:cjc019_5365"
    INDEX 01 01:42:06
  TRACK 76 AUDIO
    TITLE "0:"
    INDEX 01 01:44:30
  TRACK 77 AUDIO
    TITLE "17:cjc019_5366"
    INDEX 01 01:45:08
  TRACK 78 AUDIO
    TITLE "0:"
    INDEX 01 01:46:53
  TRACK 79 AUDIO
    TITLE "16:cjc019_5367"
    INDEX 01 01:48:32
  TRACK 80 AUDIO
    TITLE "0:"
    INDEX 01 01:49:73
  TRACK 81 AUDIO
    TITLE "18:cjc019_5368"
    INDEX 01 01:50:54
  TRACK 82 AUDIO
    TITLE "0:"
    INDEX 01 01:51:68
  TRACK 83 AUDIO
    TITLE "17:cjc019_5369"
    INDEX 01 01:52:49
  TRACK 84 AUDIO
    TITLE "0:"
    INDEX 01 01:54:23
  TRACK 85 AUDIO
    TITLE "16:cjc019_5370"
    INDEX 01 01:56:00
  TRACK 86 AUDIO
    TITLE "0:"
    INDEX 01 01:57:37
  TRACK 87 AUDIO
    TITLE "18:cjc019_5371"
    INDEX 01 01:58:21
  TRACK 88 AUDIO
    TITLE "0:"
    INDEX 01 01:59:28
  TRACK 89 AUDIO
    TITLE "17:cjc019_5372"
    INDEX 01 02:00:04
  TRACK 90 AUDIO
    TITLE "0:"
    INDEX 01 02:01:52
